<?xml version="1.0" encoding="UTF-8"?> <svg xmlns="http://www.w3.org/2000/svg" viewBox="0 0 100 100" fill-rule="evenodd"><path d="M75.214 9.427H24.787c-8.469 0-15.359 6.89-15.359 15.359v50.427c0 8.469 6.89 15.359 15.359 15.359h50.427c8.469 0 15.359-6.891 15.359-15.359V24.786c0-8.469-6.89-15.359-15.359-15.359zm12.359 65.786c0 6.815-5.544 12.359-12.359 12.359H24.787c-6.815 0-12.359-5.544-12.359-12.359V24.786c0-6.815 5.544-12.359 12.359-12.359h50.427c6.815 0 12.359 5.544 12.359 12.359v50.427z" fill="#cf8f65"></path><path d="M49.996 18.485c-17.377 0-31.515 14.137-31.515 31.515s14.137 31.516 31.515 31.516c17.38 0 31.519-14.138 31.519-31.516.001-17.378-14.139-31.515-31.519-31.515zm1.5 59.99V65.049a1.5 1.5 0 1 0-3 0v13.426c-15.029-.783-27.015-13.255-27.015-28.476 0-15.22 11.986-27.692 27.015-28.475V34.95a1.5 1.5 0 1 0 3 0V21.524c15.031.783 27.019 13.255 27.019 28.475.001 15.221-11.988 27.693-27.019 28.476z" fill="#cf8f65"></path><path d="M39.002 41.341c-4.774 0-8.659 3.886-8.659 8.662 0 4.772 3.884 8.655 8.659 8.655s8.659-3.883 8.659-8.655c0-4.776-3.884-8.662-8.659-8.662zm0 14.317a5.664 5.664 0 0 1-5.659-5.655c0-3.122 2.539-5.662 5.659-5.662s5.659 2.54 5.659 5.662a5.664 5.664 0 0 1-5.659 5.655zm21.996-14.317c-4.774 0-8.659 3.886-8.659 8.662 0 4.772 3.884 8.655 8.659 8.655s8.659-3.883 8.659-8.655c0-4.776-3.884-8.662-8.659-8.662zm0 14.317a5.664 5.664 0 0 1-5.659-5.655c0-3.122 2.539-5.662 5.659-5.662s5.659 2.54 5.659 5.662a5.663 5.663 0 0 1-5.659 5.655z" fill="#cf8f65"></path></svg> 